<?xml version="1.0" standalone="no"?><!DOCTYPE svg PUBLIC "-//W3C//DTD SVG 1.1//EN" "http://www.w3.org/Graphics/SVG/1.1/DTD/svg11.dtd"><svg t="1706593680130" class="icon" viewBox="0 0 1024 1024" version="1.1" xmlns="http://www.w3.org/2000/svg" p-id="2105" xmlns:xlink="http://www.w3.org/1999/xlink" width="200" height="200"><path d="M555.0848 432.0768l-0.0512-0.0512 0.0512-0.0768-180.992-181.0176q-7.5264-7.5008-7.5264-18.0992 0-10.624 7.5008-18.0992 7.5008-7.5008 18.0992-7.5008 10.624 0 18.0992 7.5008l181.0176 180.992 0.2048-0.1792 43.8272 43.8528q7.3728 7.3728 17.3056 8.6016 13.952 1.7152 23.1424-7.936 7.68-7.1168 8.4736-18.2272 0.4864-6.784-2.2272-13.6192l-0.1024-0.2816-32.6144-76.8256q-11.1872-27.392 4.6592-43.264 11.3408-11.3408 25.344-11.4688 13.952-0.128 25.2672 11.2128 8.4736 8.3968 13.5936 19.5328l85.2992 178.944q81.3824 171.008-37.8112 290.048l-10.496 9.6512-0.384 0.384q-69.9392 69.9136-150.5024 65.6384-83.328-4.4032-165.5296-86.656L219.136 545.536q-13.696-13.696-14.3104-28.3392-0.5376-13.2352 10.24-23.9872 6.4-6.4 12.8512-8.32l137.1136 137.1136 36.1984-36.1984-162.9184-162.9184q-7.5008-7.5008-7.5008-18.0992t7.5008-18.0992q7.5008-7.5008 18.0992-7.5008 9.3696 0 16.3072 5.8624l164.7104 164.6848 36.1984-36.1984-0.0768-0.0768 0.0768-0.0768-162.9184-162.8928q-1.5104-1.536-3.072-2.9184l-42.2912-42.3168Q256 295.8848 256 282.624t9.3696-22.6304q9.3696-9.3696 22.6304-9.3696t22.6304 9.3696l208.2816 208.3072 36.1984-36.224z m-363.52 14.1568q-6.5024 4.5568-12.6464 10.7008-26.7264 26.7264-25.2416 62.3616 1.4336 34.6112 29.2608 62.464l219.5968 219.5968q96.0768 96.1024 199.0144 101.5552 103.1168 5.4784 189.0304-80.1792l10.496-9.6512 0.3328-0.3584q71.6544-71.3216 83.6864-161.024 11.8272-88.3712-35.4048-187.648l-85.2992-178.944q-8.704-18.944-23.7824-33.8688-26.2912-26.368-61.7472-26.0608-34.944 0.3072-61.1072 26.4704-18.816 18.8416-22.9888 45.2096-2.3296 14.6432 0.2304 29.7728L451.2 182.784l-0.2304 0.256-4.48-4.5312q-22.5024-22.4768-54.3232-22.4768-31.7952 0-54.272 22.4768-12.2112 12.1856-17.792 27.0848-14.7712-6.144-32.128-6.144-34.4576 0-58.8288 24.3456-24.3712 24.3712-24.3712 58.8288 0 30.1312 18.6368 52.5568-11.52 5.5296-21.2992 15.3088-22.5024 22.4768-22.5024 54.272 0 23.2192 11.9808 41.472z" fill="#000000" p-id="2106"></path></svg>